<?xml version="1.0" encoding="UTF-8" standalone="no"?>
<!-- Created with Inkscape (http://www.inkscape.org/) -->

<svg
   width="10"
   height="45"
   viewBox="0 0 2.6458334 11.90625"
   version="1.1"
   id="svg1"
   inkscape:version="1.3 (0e150ed, 2023-07-21)"
   sodipodi:docname="co2.svg"
   xml:space="preserve"
   xmlns:inkscape="http://www.inkscape.org/namespaces/inkscape"
   xmlns:sodipodi="http://sodipodi.sourceforge.net/DTD/sodipodi-0.dtd"
   xmlns="http://www.w3.org/2000/svg"
   xmlns:svg="http://www.w3.org/2000/svg"><sodipodi:namedview
     id="namedview1"
     pagecolor="#808080"
     bordercolor="#666666"
     borderopacity="1.0"
     inkscape:showpageshadow="2"
     inkscape:pageopacity="0.0"
     inkscape:pagecheckerboard="0"
     inkscape:deskcolor="#d1d1d1"
     inkscape:document-units="mm"
     inkscape:zoom="24.377792"
     inkscape:cx="4.9840445"
     inkscape:cy="22.499987"
     inkscape:window-width="1664"
     inkscape:window-height="1248"
     inkscape:window-x="3016"
     inkscape:window-y="25"
     inkscape:window-maximized="0"
     inkscape:current-layer="layer1"
     showgrid="true"><inkscape:grid
       id="grid1"
       units="px"
       originx="0"
       originy="15"
       spacingx="0.26458333"
       spacingy="0.26458333"
       empcolor="#0099e5"
       empopacity="0.30196078"
       color="#0099e5"
       opacity="0.14901961"
       empspacing="5"
       dotted="false"
       gridanglex="30"
       gridanglez="30"
       visible="true" /></sodipodi:namedview><defs
     id="defs1" /><g
     inkscape:label="Layer 1"
     inkscape:groupmode="layer"
     id="layer1"
     transform="translate(0,-285.09374)"><path
       id="text3-5-1"
       style="font-size:3.70824px;line-height:1.25;fill:#ff8000;fill-opacity:1;stroke-width:0.0927065"
       d="m 1.4642693,296.99998 -0.69878951,-2.8991 h -0.0115981 q 0.0217466,0.36181 0.0217466,0.89325 v 2.00585 H 0.52916717 v -3.30615 h 0.39433764 l 0.65384659,2.70914 h 0.011598 l 0.6654448,-2.70914 h 0.3914381 v 3.30615 h -0.263858 v -2.03299 q 0,-0.33921 0.020297,-0.86159 h -0.011598 l -0.7074881,2.89458 z m 1.181564,-6.63379 q 0,0.50655 -0.3459935,0.77792 -0.3459938,0.26911 -0.974662,0.26911 H 0.94526321 v 1.28673 H 0.52916625 v -3.30616 H 1.4043266 q 1.2415067,0 1.2415067,0.9724 z m -1.70057009,0.68973 H 1.2776884 q 0.4929845,0 0.7146014,-0.1583 0.2216168,-0.16056 0.2216168,-0.51334 0,-0.31886 -0.205787,-0.47715 -0.2057872,-0.1583 -0.6422366,-0.1583 H 0.94526321 Z m 1.70057009,-4.98978 q 0,0.50655 -0.3459935,0.77792 -0.3459938,0.26911 -0.974662,0.26911 H 0.94526321 v 1.28674 H 0.52916625 v -3.30617 H 1.4043266 q 1.2415067,0 1.2415067,0.9724 z m -1.70057009,0.68974 H 1.2776884 q 0.4929845,0 0.7146014,-0.15831 0.2216168,-0.16056 0.2216168,-0.51334 0,-0.31884 -0.205787,-0.47715 -0.2057872,-0.1583 -0.6422366,-0.1583 H 0.94526321 Z" /></g></svg>
