<?xml version="1.0" encoding="UTF-8" standalone="no"?>
<!-- Created with Inkscape (http://www.inkscape.org/) -->

<svg
   width="10"
   height="45"
   viewBox="0 0 2.6458334 11.90625"
   version="1.1"
   id="svg1"
   inkscape:version="1.3 (0e150ed, 2023-07-21)"
   sodipodi:docname="co2.svg"
   xml:space="preserve"
   xmlns:inkscape="http://www.inkscape.org/namespaces/inkscape"
   xmlns:sodipodi="http://sodipodi.sourceforge.net/DTD/sodipodi-0.dtd"
   xmlns="http://www.w3.org/2000/svg"
   xmlns:svg="http://www.w3.org/2000/svg"><sodipodi:namedview
     id="namedview1"
     pagecolor="#808080"
     bordercolor="#666666"
     borderopacity="1.0"
     inkscape:showpageshadow="2"
     inkscape:pageopacity="0.0"
     inkscape:pagecheckerboard="0"
     inkscape:deskcolor="#d1d1d1"
     inkscape:document-units="mm"
     inkscape:zoom="24.377792"
     inkscape:cx="5.004555"
     inkscape:cy="22.499987"
     inkscape:window-width="1664"
     inkscape:window-height="1248"
     inkscape:window-x="3016"
     inkscape:window-y="25"
     inkscape:window-maximized="0"
     inkscape:current-layer="layer1"
     showgrid="true"><inkscape:grid
       id="grid1"
       units="px"
       originx="0"
       originy="15"
       spacingx="0.26458333"
       spacingy="0.26458333"
       empcolor="#0099e5"
       empopacity="0.30196078"
       color="#0099e5"
       opacity="0.14901961"
       empspacing="5"
       dotted="false"
       gridanglex="30"
       gridanglez="30"
       visible="true" /></sodipodi:namedview><defs
     id="defs1" /><g
     inkscape:label="Layer 1"
     inkscape:groupmode="layer"
     id="layer1"
     transform="translate(0,-285.09374)"><path
       id="text3-5-1"
       style="font-size:3.70824px;line-height:1.25;stroke-width:0.0927065;fill:#ff8000;fill-opacity:1"
       transform="scale(0.80068455,1.2489313)"
       d="M 1.4983256,237.8033 0.6255855,235.48203 H 0.6111002 q 0.02716,0.2897 0.02716,0.71521 v 1.60606 H 0.33044726 v -2.64719 h 0.49250063 l 0.81660951,2.16917 h 0.014485 l 0.8310948,-2.16917 h 0.4888793 v 2.64719 H 2.644476 v -1.62779 q 0,-0.2716 0.025349,-0.68986 H 2.65534 l -0.883604,2.31765 z m 1.4756923,-5.31158 q 0,0.40559 -0.4321222,0.62287 -0.4321224,0.21547 -1.2172858,0.21547 H 0.85012264 v 1.03027 H 0.33044612 v -2.64719 H 1.4234613 q 1.5505566,0 1.5505566,0.77858 z m -2.12389526,0.55226 H 1.2652989 q 0.6157038,0 0.892488,-0.12675 0.2767842,-0.12856 0.2767842,-0.41102 0,-0.25531 -0.2570139,-0.38205 -0.257014,-0.12675 -0.8021094,-0.12675 H 0.85012264 Z m 2.12389526,-3.99524 q 0,0.40559 -0.4321222,0.62287 -0.4321224,0.21547 -1.2172858,0.21547 H 0.85012264 v 1.03027 H 0.33044612 v -2.6472 H 1.4234613 q 1.5505566,0 1.5505566,0.77859 z M 0.85012264,229.601 H 1.2652989 q 0.6157038,0 0.892488,-0.12675 0.2767842,-0.12856 0.2767842,-0.41103 0,-0.25529 -0.2570139,-0.38204 -0.257014,-0.12675 -0.8021094,-0.12675 H 0.85012264 Z" /></g></svg>
