<?xml version="1.0" encoding="UTF-8" standalone="no"?>
<!-- Created with Inkscape (http://www.inkscape.org/) -->

<svg
   width="60"
   height="60"
   viewBox="0 0 15.875 15.875"
   version="1.1"
   id="svg1"
   inkscape:version="1.3 (0e150ed, 2023-07-21)"
   sodipodi:docname="fanauto.svg"
   xmlns:inkscape="http://www.inkscape.org/namespaces/inkscape"
   xmlns:sodipodi="http://sodipodi.sourceforge.net/DTD/sodipodi-0.dtd"
   xmlns="http://www.w3.org/2000/svg"
   xmlns:svg="http://www.w3.org/2000/svg">
  <sodipodi:namedview
     id="namedview1"
     pagecolor="#808080"
     bordercolor="#666666"
     borderopacity="1.0"
     inkscape:showpageshadow="2"
     inkscape:pageopacity="0.0"
     inkscape:pagecheckerboard="0"
     inkscape:deskcolor="#d1d1d1"
     inkscape:document-units="mm"
     inkscape:zoom="13.02"
     inkscape:cx="29.99232"
     inkscape:cy="29.99232"
     inkscape:window-width="1664"
     inkscape:window-height="1248"
     inkscape:window-x="2676"
     inkscape:window-y="72"
     inkscape:window-maximized="0"
     inkscape:current-layer="layer1"
     showgrid="true">
    <inkscape:grid
       id="grid1"
       units="px"
       originx="0"
       originy="0"
       spacingx="0.26458333"
       spacingy="0.26458333"
       empcolor="#0099e5"
       empopacity="0.30196078"
       color="#0099e5"
       opacity="0.14901961"
       empspacing="5"
       dotted="false"
       gridanglex="30"
       gridanglez="30"
       visible="true" />
  </sodipodi:namedview>
  <defs
     id="defs1" />
  <g
     inkscape:label="Layer 1"
     inkscape:groupmode="layer"
     id="layer1"
     transform="translate(0,-281.12499)">
    <path
       style="fill:#00ffff;fill-opacity:1;stroke:#00ffff;stroke-width:0.264583;stroke-dasharray:none;stroke-opacity:1"
       id="path1032"
       d="m 8.7713114,286.93635 c 0.2839335,0.10346 0.5448913,0.2593 0.7812294,0.47104 0.2527506,0.22647 0.4743182,0.51205 0.6647032,0.86164 0.09027,0 0.182177,0.002 0.272446,0.005 0.164123,0.007 0.321682,0.018 0.475959,0.0345 0.645008,0.0738 1.132456,0.27243 1.618262,0.47267 0.310195,0.12632 0.620388,0.25439 0.971614,0.33973 0.0032,0.002 0.0066,0.002 0.01151,0.004 0.118163,0.0279 0.224848,0.0346 0.318401,0.0245 0.167405,-0.018 0.300347,-0.0952 0.402102,-0.21008 0.114881,-0.1296 0.196949,-0.30855 0.246187,-0.50715 0.05415,-0.21828 0.06565,-0.45788 0.04267,-0.68438 -0.02134,-0.2035 -0.07057,-0.40865 -0.134576,-0.61054 -0.06729,-0.20843 -0.149359,-0.41031 -0.239622,-0.60233 -0.08208,-0.17396 -0.175612,-0.34137 -0.27737,-0.50057 -0.101748,-0.15761 -0.21336,-0.31184 -0.336452,-0.46448 -0.405387,-0.5022 -0.832109,-0.84686 -1.260473,-1.04547 -0.390615,-0.18052 -0.784513,-0.2396 -1.16364,-0.18544 -0.382408,0.0557 -0.754969,0.22649 -1.101271,0.50549 -0.4447772,0.35779 -0.8435977,0.8912 -1.1636401,1.58379 -0.054156,0.11653 -0.088634,0.23634 -0.1083147,0.35615 -0.0098,0.051 -0.0165,0.10175 -0.019696,0.15263 z m -2.9607968,1.34088 c 0.1017562,-0.28558 0.2576746,-0.54653 0.4677532,-0.78286 0.2232087,-0.25111 0.5104255,-0.47269 0.8600092,-0.6647 0,-0.092 0,-0.18219 0.00332,-0.27409 0.00493,-0.16242 0.016414,-0.3217 0.03446,-0.47597 0.07221,-0.64991 0.2708047,-1.13572 0.4677537,-1.61988 0.1280159,-0.3151 0.2560326,-0.63024 0.339736,-0.97162 0.029548,-0.12305 0.037741,-0.23303 0.026257,-0.32988 -0.018046,-0.16569 -0.096833,-0.30035 -0.2117201,-0.40211 -0.1312988,-0.11652 -0.3085533,-0.19693 -0.5071428,-0.24453 -0.218285,-0.0526 -0.457906,-0.0656 -0.6843967,-0.0394 -0.2051551,0.0231 -0.4103099,0.0706 -0.6105412,0.13629 -0.2051549,0.0656 -0.4070274,0.14935 -0.6006938,0.24126 -0.1739712,0.0821 -0.3397366,0.17561 -0.5005779,0.27901 -0.1624825,0.10501 -0.3167593,0.21665 -0.4628297,0.33644 -0.5022193,0.40703 -0.8468795,0.83539 -1.0438283,1.2654 -0.1805364,0.39062 -0.2379798,0.78451 -0.1821775,1.16198 0.055803,0.38241 0.2281322,0.75497 0.507143,1.09963 0.3594314,0.44313 0.8944755,0.84194 1.5870785,1.16198 0.1165287,0.0541 0.2363386,0.0869 0.356149,0.10674 0.05252,0.007 0.1033975,0.0121 0.1542774,0.0172 z m -0.0082,0.62531 c -0.082061,-0.005 -0.164124,-0.0138 -0.2461859,-0.0263 -0.1739716,-0.0279 -0.347943,-0.0772 -0.5169906,-0.15588 -0.78123,-0.35943 -1.3917712,-0.81897 -1.8102873,-1.33596 -0.3512252,-0.43493 -0.56951,-0.90925 -0.6417247,-1.40327 -0.073855,-0.49727 0.00164,-1.01098 0.2330561,-1.51484 0.2363385,-0.51371 0.6384423,-1.01921 1.2177997,-1.48694 0.1674067,-0.1363 0.3413779,-0.26261 0.5202729,-0.3775 0.1805364,-0.11653 0.3709202,-0.2232 0.5711514,-0.3184 0.2133613,-0.10003 0.4398524,-0.19366 0.6761908,-0.2708 0.2396211,-0.0772 0.4874481,-0.13629 0.733634,-0.16242 0.2954234,-0.0328 0.6089,-0.0172 0.8994002,0.0541 0.2937812,0.0722 0.5662273,0.19861 0.776306,0.3857 0.2264923,0.20023 0.3807674,0.4661 0.4168745,0.80091 0.018046,0.16585 0.00654,0.34796 -0.041022,0.54489 -0.096834,0.39555 -0.2314165,0.72706 -0.3659972,1.06025 -0.1805365,0.44477 -0.3627134,0.89283 -0.4250808,1.45247 -0.016414,0.14764 -0.026257,0.28887 -0.031189,0.42673 -0.00332,0.0952 -0.00493,0.19039 -0.00332,0.28556 0.091906,-0.0121 0.1871012,-0.018 0.2822929,-0.018 0.03447,0 0.06893,0.002 0.1033979,0.002 0.00493,-0.0541 0.011483,-0.11 0.021336,-0.16414 0.027897,-0.17232 0.078782,-0.34629 0.1575581,-0.51534 0.3627143,-0.78123 0.8222617,-1.39177 1.3408937,-1.80864 0.4349287,-0.34958 0.9092477,-0.56621 1.4049027,-0.63843 0.497294,-0.0722 1.009362,0.004 1.513222,0.23634 0.513707,0.23797 1.017568,0.64172 1.486964,1.22272 0.132945,0.16413 0.257673,0.33644 0.375844,0.52025 0.11653,0.18217 0.223208,0.37257 0.316757,0.57116 0.10175,0.215 0.195308,0.44149 0.269166,0.67454 0.07714,0.23961 0.134576,0.48746 0.160839,0.73527 0.03118,0.29542 0.01478,0.6089 -0.05581,0.8994 -0.07222,0.29213 -0.198589,0.56293 -0.387333,0.77466 -0.201873,0.22649 -0.467752,0.37912 -0.802566,0.41523 -0.16249,0.018 -0.339735,0.007 -0.53012,-0.0394 -0.0048,-0.002 -0.0098,-0.002 -0.01478,-0.004 -0.385689,-0.0952 -0.722144,-0.23141 -1.056957,-0.36927 -0.443135,-0.18054 -0.887911,-0.3627 -1.45414,-0.42836 -0.147708,-0.0172 -0.288855,-0.0279 -0.426721,-0.0328 -0.05908,-0.002 -0.119813,-0.004 -0.178896,-0.004 0.0066,0.0675 0.0083,0.13458 0.0083,0.20186 0,0.0574 -0.0016,0.11482 -0.0066,0.17235 0.103399,0.009 0.208437,0.0213 0.311836,0.0444 0.170688,0.0361 0.341377,0.0935 0.508784,0.18055 0.764817,0.39553 1.354024,0.88296 1.747919,1.41965 0.32989,0.44805 0.525197,0.93385 0.574435,1.43115 0.05087,0.50058 -0.04759,1.00936 -0.301988,1.50174 -0.260957,0.50384 -0.686038,0.98964 -1.286732,1.43114 -0.17233,0.12633 -0.349583,0.24455 -0.535044,0.35286 -0.187102,0.10828 -0.382408,0.2068 -0.585923,0.29215 -0.219925,0.0919 -0.45134,0.17561 -0.687679,0.2396 -0.241263,0.0656 -0.4890912,0.11156 -0.7418419,0.12806 -0.2954235,0.0197 -0.6088991,-0.0121 -0.8961173,-0.0968 -0.2904993,-0.0854 -0.5547382,-0.2232 -0.7566106,-0.42015 -0.2166115,-0.21145 -0.3593995,-0.4839 -0.3807364,-0.82034 -0.00984,-0.16568 0.00985,-0.34796 0.067289,-0.54161 0.1148872,-0.39063 0.2642389,-0.71558 0.4152331,-1.04217 0.2018724,-0.43658 0.4037449,-0.87479 0.4923716,-1.4328 0.021336,-0.13458 0.03775,-0.27738 0.049243,-0.42508 0.00493,-0.0607 0.00815,-0.11825 0.011483,-0.17562 -0.083703,0.0103 -0.1674069,0.0154 -0.2543921,0.0154 -0.1050384,0 -0.2084373,-0.007 -0.3101938,-0.0213 -0.00332,0.0328 -0.00815,0.0656 -0.013133,0.0968 -0.026257,0.17397 -0.07221,0.34793 -0.1493527,0.51863 -0.3479433,0.78615 -0.7992834,1.40324 -1.3113507,1.82996 -0.4283634,0.35779 -0.9010405,0.581 -1.3934123,0.66142 -0.4972956,0.0804 -1.0110035,0.0138 -1.5165054,-0.21008 -0.5170173,-0.22963 -1.027443,-0.62517 -1.5066848,-1.19795 -0.1395048,-0.16741 -0.2675219,-0.3381 -0.3840499,-0.51371 -0.1148873,-0.17726 -0.2232088,-0.36436 -0.3233244,-0.56622 -0.1050389,-0.21502 -0.20351375,-0.44149 -0.28065202,-0.67128 -0.0804215,-0.23962 -0.14278751,-0.48581 -0.17397132,-0.73197 -0.0361071,-0.29379 -0.0246189,-0.60727 0.0426728,-0.8994 0.0672899,-0.29378 0.19038363,-0.56786 0.37420264,-0.78123 0.1985899,-0.22978 0.4611882,-0.38733 0.7960011,-0.43 0.1641241,-0.0213 0.3463016,-0.0121 0.5448917,0.0346 0.3955386,0.0902 0.7303514,0.22157 1.0651642,0.35122 0.4480584,0.17562 0.897758,0.34958 1.4590621,0.40539 0.1444289,0.0154 0.2872168,0.0231 0.4283635,0.0245 0.1329409,0.004 0.2691632,0 0.4086686,-0.007 -0.00328,-0.0476 -0.00493,-0.0968 -0.00493,-0.14437 0,-0.0639 0.00164,-0.12805 0.00656,-0.19204 z m 3.3924425,-0.95683 c -0.2937821,-0.29379 -0.7008109,-0.47597 -1.1488682,-0.47597 -0.4480582,0 -0.8550849,0.18218 -1.1488671,0.47597 -0.2937824,0.29377 -0.47596,0.70078 -0.47596,1.14885 0,0.44805 0.1821776,0.85508 0.47596,1.14886 0.2937822,0.29378 0.7008089,0.47596 1.1488671,0.47596 0.4480573,0 0.8550861,-0.18218 1.1488682,-0.47596 0.2937821,-0.29378 0.475959,-0.70081 0.475959,-1.14886 0,-0.44807 -0.1821769,-0.85508 -0.475959,-1.14885 z m -2.0745269,3.23156 c -0.2855758,-0.0985 -0.5498155,-0.24945 -0.7894366,-0.45789 -0.2560334,-0.22157 -0.4825245,-0.50385 -0.6794732,-0.85016 -0.090269,0.002 -0.1805364,0.002 -0.2740868,0 -0.1591999,-0.004 -0.3184006,-0.0121 -0.4743185,-0.0279 -0.651572,-0.0639 -1.1406614,-0.25439 -1.6264682,-0.44477 -0.3151181,-0.12306 -0.6318773,-0.24619 -0.9748963,-0.32497 -0.1230925,-0.0279 -0.233056,-0.0345 -0.3315304,-0.0213 -0.1674067,0.0213 -0.2987056,0.10003 -0.3988212,0.21665 -0.113246,0.1313 -0.1920252,0.31019 -0.2379797,0.50876 -0.049237,0.21831 -0.059085,0.45791 -0.029541,0.68605 0.026258,0.2035 0.077139,0.40866 0.1444289,0.60725 0.070573,0.21007 0.1575584,0.41031 0.2494684,0.59741 0.083702,0.17067 0.1788951,0.33482 0.2855758,0.49565 0.1083217,0.16241 0.2232084,0.31513 0.3430188,0.45955 0.4119513,0.49402 0.8452385,0.83211 1.2785258,1.02412 0.3955386,0.17562 0.7894361,0.22814 1.1669213,0.16741 0.3807675,-0.0624 0.7516875,-0.2396 1.0930655,-0.52355 0.4365696,-0.36435 0.8271849,-0.90432 1.1373787,-1.60348 0.052524,-0.11653 0.083703,-0.23798 0.1017583,-0.35779 0.00815,-0.0476 0.013134,-0.10003 0.016414,-0.15108 z m 3.2020588,-1.2785 c -0.114881,0.28064 -0.282293,0.53338 -0.505502,0.75987 -0.2363391,0.24128 -0.5317627,0.44971 -0.8895517,0.62532 -0.00322,0.0952 -0.00825,0.18546 -0.016329,0.27245 -0.011512,0.15262 -0.031179,0.31019 -0.057436,0.47431 -0.103399,0.64664 -0.3233235,1.12261 -0.5416104,1.59693 -0.142787,0.30855 -0.2839334,0.61545 -0.3840493,0.95355 -0.03611,0.12151 -0.047593,0.2314 -0.042672,0.32987 0.011483,0.1674 0.082063,0.30363 0.1920256,0.41031 0.1247339,0.12151 0.300346,0.21171 0.4940131,0.26918 0.2150021,0.0624 0.4546231,0.0869 0.6827549,0.0722 0.2018724,-0.0138 0.4103106,-0.0526 0.615466,-0.10828 0.2117198,-0.0573 0.4168748,-0.1313 0.6105408,-0.21335 0.178896,-0.0739 0.349584,-0.15916 0.512067,-0.2544 0.165772,-0.0952 0.324967,-0.20186 0.479242,-0.3151 0.520275,-0.38242 0.882988,-0.79437 1.101272,-1.21287 0.19859,-0.38241 0.274087,-0.77302 0.236339,-1.15379 -0.03774,-0.38404 -0.193667,-0.76318 -0.457907,-1.1226 -0.338096,-0.45955 -0.853445,-0.88135 -1.531276,-1.23257 -0.113247,-0.0591 -0.231415,-0.0985 -0.351226,-0.12306 -0.04431,-0.0154 -0.0952,-0.0231 -0.146075,-0.0279 z"
       sodipodi:nodetypes="cccccccccccccccccccccccsccccccccccccccccccccccccccccccccccccccsccccccccccccccccccccscccccccccccccccccccscccccccccccccccccccscssssssssscccccccccccccccccccccccccccccccccccccccccc" />
    <text
       xml:space="preserve"
       style="font-style:italic;font-variant:normal;font-weight:normal;font-stretch:normal;font-size:12.6101px;line-height:1.25;font-family:sans-serif;-inkscape-font-specification:'sans-serif, Italic';font-variant-ligatures:normal;font-variant-caps:normal;font-variant-numeric:normal;font-variant-east-asian:normal;fill:#ffffff;fill-opacity:1;stroke:#808080;stroke-width:0.264583;stroke-opacity:1"
       x="8.2030716"
       y="296.01108"
       id="text1"
       transform="scale(1.0006819,0.99931858)"><tspan
         sodipodi:role="line"
         id="tspan1"
         style="font-style:italic;font-variant:normal;font-weight:normal;font-stretch:normal;font-size:12.6101px;font-family:sans-serif;-inkscape-font-specification:'sans-serif, Italic';font-variant-ligatures:normal;font-variant-caps:normal;font-variant-numeric:normal;font-variant-east-asian:normal;fill:#ffffff;fill-opacity:1;stroke:#808080;stroke-width:0.264583;stroke-opacity:1"
         x="8.2030716"
         y="296.01108">A</tspan></text>
  </g>
</svg>
