<?xml version="1.0" encoding="UTF-8" standalone="no"?>
<!-- Created with Inkscape (http://www.inkscape.org/) -->

<svg
   width="25"
   height="45"
   viewBox="0 0 6.6145834 11.90625"
   version="1.1"
   id="svg1"
   inkscape:version="1.3 (0e150ed, 2023-07-21)"
   sodipodi:docname="humidity.svg"
   xml:space="preserve"
   xmlns:inkscape="http://www.inkscape.org/namespaces/inkscape"
   xmlns:sodipodi="http://sodipodi.sourceforge.net/DTD/sodipodi-0.dtd"
   xmlns="http://www.w3.org/2000/svg"
   xmlns:svg="http://www.w3.org/2000/svg"><sodipodi:namedview
     id="namedview1"
     pagecolor="#808080"
     bordercolor="#666666"
     borderopacity="1.0"
     inkscape:showpageshadow="2"
     inkscape:pageopacity="0.0"
     inkscape:pagecheckerboard="0"
     inkscape:deskcolor="#d1d1d1"
     inkscape:document-units="mm"
     inkscape:zoom="24.377778"
     inkscape:cx="12.490884"
     inkscape:cy="22.5"
     inkscape:window-width="1664"
     inkscape:window-height="1248"
     inkscape:window-x="3016"
     inkscape:window-y="25"
     inkscape:window-maximized="0"
     inkscape:current-layer="layer1"
     showgrid="true"><inkscape:grid
       id="grid1"
       units="px"
       originx="0"
       originy="15"
       spacingx="0.26458333"
       spacingy="0.26458333"
       empcolor="#0099e5"
       empopacity="0.30196078"
       color="#0099e5"
       opacity="0.14901961"
       empspacing="5"
       dotted="false"
       gridanglex="30"
       gridanglez="30"
       visible="true" /></sodipodi:namedview><defs
     id="defs1" /><g
     inkscape:label="Layer 1"
     inkscape:groupmode="layer"
     id="layer1"
     transform="translate(0,-285.09374)"><path
       style="fill:#4080ff;fill-opacity:1;stroke:#4080ff;stroke-width:0.529167;stroke-linecap:round;stroke-linejoin:round;stroke-dasharray:none;stroke-opacity:1"
       d="m 3.7041662,289.85614 c 0,0 -2.6458331,3.43958 -2.6458331,4.7625 0,1.32291 1.3303229,2.12724 2.6458331,2.11666 1.3155102,-0.0106 2.6448053,-0.78506 2.6458333,-2.11666 0.00103,-1.3316 -2.6458333,-4.7625 -2.6458333,-4.7625"
       id="path1"
       sodipodi:nodetypes="czzzc" /><path
       d="m 2.3288279,293.54791 q 0,0.3776 0.080094,0.56983 0.082383,0.18995 0.2608796,0.18995 0.3615698,0 0.3615698,-0.75978 0,-0.7552 -0.3615698,-0.7552 -0.1784965,0 -0.2608796,0.18995 -0.080094,0.18765 -0.080094,0.56525 z m 1.0458066,0 q 0,0.52178 -0.180785,0.78952 -0.1784965,0.26547 -0.5240475,0.26547 -0.3249551,0 -0.5057401,-0.27233 -0.1784965,-0.27461 -0.1784965,-0.78266 0,-0.52406 0.1739196,-0.78495 0.1762081,-0.26088 0.510317,-0.26088 0.3363973,0 0.5194706,0.27233 0.1853619,0.27004 0.1853619,0.7735 z m 1.0023264,1.34105 q 0,0.38218 0.080094,0.56983 0.082383,0.18766 0.2608794,0.18766 0.1853619,0 0.2723217,-0.18537 0.089249,-0.18765 0.089249,-0.57212 0,-0.75062 -0.36157,-0.75062 -0.1784964,0 -0.2608794,0.18765 -0.080094,0.18538 -0.080095,0.56297 z m 1.0458066,0 q 0,0.51948 -0.1807849,0.78724 -0.1807849,0.26546 -0.5240475,0.26546 -0.3249552,0 -0.5057401,-0.27233 -0.1784965,-0.27461 -0.1784965,-0.78037 0,-0.52406 0.1739197,-0.78495 0.1739196,-0.26089 0.5103169,-0.26089 0.3363973,0 0.5194707,0.27233 0.1853617,0.27005 0.1853617,0.77351 z m -0.6110072,-2.33883 -1.8559061,3.34576 H 2.5965728 l 1.8559059,-3.34576 z"
       id="text1"
       style="font-size:5.40785px;line-height:1.25;-inkscape-font-specification:'sans-serif, Normal';fill:#ffffff;stroke-width:0.351505"
       aria-label="%" /><text
       xml:space="preserve"
       style="font-style:normal;font-weight:normal;font-size:4.75719px;line-height:1.25;font-family:sans-serif;fill:#4080ff;fill-opacity:1;stroke:none;stroke-width:0.11893"
       x="0.5960874"
       y="288.48975"
       id="text2"><tspan
         sodipodi:role="line"
         id="tspan1"
         style="fill:#4080ff;fill-opacity:1;stroke-width:0.11893"
         x="0.5960874"
         y="288.48975">RH</tspan></text></g></svg>
