<?xml version="1.0" encoding="UTF-8" standalone="no"?>
<!-- Created with Inkscape (http://www.inkscape.org/) -->

<svg
   width="30"
   height="30"
   viewBox="0 0 7.9375 7.9375"
   version="1.1"
   id="svg1"
   inkscape:version="1.3 (0e150ed, 2023-07-21)"
   sodipodi:docname="humidity.svg"
   xml:space="preserve"
   xmlns:inkscape="http://www.inkscape.org/namespaces/inkscape"
   xmlns:sodipodi="http://sodipodi.sourceforge.net/DTD/sodipodi-0.dtd"
   xmlns="http://www.w3.org/2000/svg"
   xmlns:svg="http://www.w3.org/2000/svg"><sodipodi:namedview
     id="namedview1"
     pagecolor="#808080"
     bordercolor="#666666"
     borderopacity="1.0"
     inkscape:showpageshadow="2"
     inkscape:pageopacity="0.0"
     inkscape:pagecheckerboard="0"
     inkscape:deskcolor="#d1d1d1"
     inkscape:document-units="mm"
     inkscape:zoom="38.930473"
     inkscape:cx="15.013946"
     inkscape:cy="15.013946"
     inkscape:window-width="1664"
     inkscape:window-height="1248"
     inkscape:window-x="3016"
     inkscape:window-y="43"
     inkscape:window-maximized="0"
     inkscape:current-layer="layer1"
     showgrid="true"><inkscape:grid
       id="grid1"
       units="px"
       originx="0"
       originy="0"
       spacingx="0.26458333"
       spacingy="0.26458333"
       empcolor="#0099e5"
       empopacity="0.30196078"
       color="#0099e5"
       opacity="0.14901961"
       empspacing="5"
       dotted="false"
       gridanglex="30"
       gridanglez="30"
       visible="true" /></sodipodi:namedview><defs
     id="defs1" /><g
     inkscape:label="Layer 1"
     inkscape:groupmode="layer"
     id="layer1"
     transform="translate(0,-289.06249)"><path
       style="fill:#4080ff;stroke:#4080ff;stroke-width:0.52916667;stroke-linecap:round;stroke-linejoin:round;stroke-dasharray:none;stroke-opacity:1;fill-opacity:1"
       d="m 3.9687497,289.59166 c 0,0 -2.6458331,3.43958 -2.6458331,4.7625 0,1.32291 1.3303229,2.12724 2.6458331,2.11666 1.3155102,-0.0106 2.6448053,-0.78506 2.6458333,-2.11666 0.00103,-1.3316 -2.6458333,-4.7625 -2.6458333,-4.7625"
       id="path1"
       sodipodi:nodetypes="czzzc" /><path
       d="m 2.3817798,293.44405 q 0,0.43569 0.092419,0.6575 0.09506,0.21917 0.3010229,0.21917 0.4172072,0 0.4172072,-0.87667 0,-0.87138 -0.4172072,-0.87138 -0.205963,0 -0.3010229,0.21917 -0.092419,0.21652 -0.092419,0.65221 z m 1.2067321,0 q 0,0.60205 -0.2086036,0.91099 -0.205963,0.30631 -0.6046863,0.30631 -0.3749583,0 -0.5835619,-0.31423 -0.205963,-0.31686 -0.205963,-0.90307 0,-0.60468 0.2006819,-0.90571 0.2033225,-0.30102 0.588843,-0.30102 0.3881611,0 0.5994052,0.31423 0.2138847,0.31158 0.2138847,0.8925 z m 1.1565616,1.54737 q 0,0.44097 0.092419,0.65749 0.09506,0.21653 0.3010228,0.21653 0.2138847,0 0.3142257,-0.21389 0.1029815,-0.21652 0.1029815,-0.66013 0,-0.8661 -0.4172072,-0.8661 -0.205963,0 -0.3010228,0.21652 -0.092419,0.21389 -0.092419,0.64958 z m 1.2067321,0 q 0,0.5994 -0.2086035,0.90835 -0.2086036,0.3063 -0.6046864,0.3063 -0.3749583,0 -0.5835619,-0.31423 -0.205963,-0.31686 -0.205963,-0.90042 0,-0.60469 0.2006819,-0.90571 0.2006819,-0.30103 0.588843,-0.30103 0.3881611,0 0.5994053,0.31423 0.2138846,0.31159 0.2138846,0.89251 z M 5.2467784,292.29277 3.105291,296.15326 H 2.6907244 l 2.1414873,-3.86049 z"
       id="text1"
       style="font-size:5.40785px;line-height:1.25;-inkscape-font-specification:'sans-serif, Normal';fill:#ffffff;stroke-width:0.405588"
       aria-label="%" /></g></svg>
