<?xml version="1.0" encoding="UTF-8" standalone="no"?>
<!-- Created with Inkscape (http://www.inkscape.org/) -->

<svg
   width="60"
   height="60"
   viewBox="0 0 15.875 15.875"
   version="1.1"
   id="svg1"
   inkscape:version="1.3 (0e150ed, 2023-07-21)"
   sodipodi:docname="modedry.svg"
   xmlns:inkscape="http://www.inkscape.org/namespaces/inkscape"
   xmlns:sodipodi="http://sodipodi.sourceforge.net/DTD/sodipodi-0.dtd"
   xmlns="http://www.w3.org/2000/svg"
   xmlns:svg="http://www.w3.org/2000/svg">
  <sodipodi:namedview
     id="namedview1"
     pagecolor="#808080"
     bordercolor="#666666"
     borderopacity="1.0"
     inkscape:showpageshadow="2"
     inkscape:pageopacity="0.0"
     inkscape:pagecheckerboard="0"
     inkscape:deskcolor="#d1d1d1"
     inkscape:document-units="mm"
     inkscape:zoom="12.583333"
     inkscape:cx="30"
     inkscape:cy="30"
     inkscape:window-width="1664"
     inkscape:window-height="1248"
     inkscape:window-x="2560"
     inkscape:window-y="25"
     inkscape:window-maximized="0"
     inkscape:current-layer="layer1" />
  <defs
     id="defs1" />
  <g
     inkscape:label="Layer 1"
     inkscape:groupmode="layer"
     id="layer1"
     transform="translate(0,-281.12499)">
    <g
       id="g1"
       transform="matrix(2.167354,0,0,2.1841892,-8.6924271,-344.0385)"
       style="stroke:#00ff80;stroke-width:0.486421;stroke-dasharray:none;stroke-opacity:1">
      <path
         style="fill:none;stroke:#00ff80;stroke-width:0.486421;stroke-linecap:round;stroke-linejoin:round;stroke-dasharray:none;stroke-opacity:1"
         d="m 4.4979168,289.85635 c 0,0 1.0079366,-0.53756 1.5875,-0.52916 1.5875,0 1.5875,1.05833 3.175,1.05833 0.5291666,0 1.5875002,-0.52917 1.5875002,-0.52917"
         id="path418"
         sodipodi:nodetypes="cccc" />
      <path
         style="fill:none;stroke:#00ff80;stroke-width:0.486421;stroke-linecap:round;stroke-linejoin:round;stroke-dasharray:none;stroke-opacity:1"
         d="m 4.4979168,287.73968 c 0,0 1.0079366,-0.53756 1.5875,-0.52916 1.5875,0 1.5875,1.05833 3.175,1.05833 0.5291666,0 1.5875002,-0.52917 1.5875002,-0.52917"
         id="path418-2"
         sodipodi:nodetypes="cccc" />
      <path
         style="fill:none;stroke:#00ff80;stroke-width:0.486421;stroke-linecap:round;stroke-linejoin:round;stroke-dasharray:none;stroke-opacity:1"
         d="m 4.4979168,291.97302 c 0,0 1.0079366,-0.53756 1.5875,-0.52916 1.5875,0 1.5875,1.05833 3.175,1.05833 0.5291666,0 1.5875002,-0.52917 1.5875002,-0.52917"
         id="path418-2-4"
         sodipodi:nodetypes="cccc" />
    </g>
  </g>
</svg>
