<?xml version="1.0" encoding="UTF-8" standalone="no"?>
<!-- Created with Inkscape (http://www.inkscape.org/) -->

<svg
   width="60"
   height="60"
   viewBox="0 0 15.875 15.875"
   version="1.1"
   id="svg1"
   inkscape:version="1.3 (0e150ed, 2023-07-21)"
   sodipodi:docname="modefaikinheat.svg"
   xmlns:inkscape="http://www.inkscape.org/namespaces/inkscape"
   xmlns:sodipodi="http://sodipodi.sourceforge.net/DTD/sodipodi-0.dtd"
   xmlns="http://www.w3.org/2000/svg"
   xmlns:svg="http://www.w3.org/2000/svg">
  <sodipodi:namedview
     id="namedview1"
     pagecolor="#808080"
     bordercolor="#666666"
     borderopacity="1.0"
     inkscape:showpageshadow="2"
     inkscape:pageopacity="0.0"
     inkscape:pagecheckerboard="0"
     inkscape:deskcolor="#d1d1d1"
     inkscape:document-units="mm"
     inkscape:zoom="13.017244"
     inkscape:cx="29.99867"
     inkscape:cy="29.99867"
     inkscape:window-width="1664"
     inkscape:window-height="1248"
     inkscape:window-x="3217"
     inkscape:window-y="25"
     inkscape:window-maximized="0"
     inkscape:current-layer="layer1"
     showgrid="false" />
  <defs
     id="defs1" />
  <g
     inkscape:label="Layer 1"
     inkscape:groupmode="layer"
     id="layer1"
     transform="translate(0,-281.12499)">
    <ellipse
       style="fill:none;fill-opacity:1;stroke:#ff0000;stroke-width:1.05833;stroke-linecap:round;stroke-linejoin:round;stroke-dasharray:none;stroke-dashoffset:0;stroke-opacity:1"
       id="path1"
       cx="7.9375"
       cy="289.0625"
       rx="6.8791685"
       ry="6.8791695" />
    <path
       d="m 6.4884286,283.78301 q 0.2383085,-0.0367 1.0632227,0.0367 0.8249141,0.055 1.1182169,0.12832 0.091657,0.0367 1.0632227,0.10999 1.7964801,0.14665 1.8514741,0.18331 l 0.109988,0.055 q 0.12832,0 0.201646,0.36663 0.03666,0.20165 -0.12832,0.53161 -0.146651,0.31164 -0.293303,0.3483 -0.366628,0 -0.714925,-0.0183 -1.0448916,-0.055 -1.1182173,-0.055 -0.2749713,-0.0183 -0.4582856,-0.0367 -0.1833142,-0.0367 -0.2933028,-0.0367 -0.1099885,0 -0.4399542,-0.055 -0.3299656,-0.055 -0.3849599,-0.055 -1.0265598,-0.12832 -1.2098741,-0.10999 -0.1649828,0.0183 -0.2933028,0.25664 -0.054994,0.0917 -0.2383085,0.78825 -0.3116342,1.3382 -0.3849599,2.36476 l -0.018331,0.36663 0.1649829,-0.0183 q 0.018331,0 0.7882512,-0.055 0.7699199,-0.0733 1.0265599,-0.10999 0.3666285,-0.0367 0.8432455,0 0.3849599,0.0367 0.4216228,0.055 0.091657,0.0367 0.1833142,0.2933 0.1099886,0.23831 0.091657,0.32996 -0.018331,0.0733 -0.091657,0.16499 -0.073326,0.0733 -0.1099885,0.0733 -0.073326,0 -0.1466514,0.10999 -0.25664,0.27497 -1.4298512,0.42162 l -1.0998855,0.0917 -0.7882513,0.055 -0.054994,0.5866 q -0.036663,0.2933 -0.091657,0.6416 -0.054994,0.3483 -0.073326,0.53161 -0.036663,0.47662 -0.1649828,0.87991 -0.018331,0.055 -0.036663,0.18332 -0.018331,0.10998 -0.054994,0.20164 -0.018331,0.0733 -0.054994,0.10999 -0.036663,0.0367 -0.073326,0.14665 -0.036663,0.0917 -0.1466514,0.14665 -0.1466514,0.055 -0.4216228,0.0183 -0.3116342,-0.0367 -0.4216228,-0.0733 -0.091657,-0.055 -0.1466514,-0.18332 -0.1283199,-0.2383 0.018332,-1.15488 0.1833142,-1.09988 0.2383085,-1.68649 0.036663,-0.49495 0.091657,-1.2832 0.073326,-0.78825 0.091657,-1.04489 0.036663,-0.25664 0.091657,-0.75159 0.073326,-0.49494 0.2016456,-1.09988 0.1649829,-0.86158 0.2933028,-1.09989 0.036663,-0.0733 0.12832,-0.38496 0.1099886,-0.31163 0.1649828,-0.40329 0.018331,-0.0183 0.054994,-0.0917 0.036663,-0.0733 0.054994,-0.0916 0.073326,-0.18332 0.4032914,-0.40329 0.3299656,-0.21998 0.6232684,-0.27498 z"
       id="text1"
       style="font-size:15.6917px;line-height:1.25;font-family:'xkcd Script';-inkscape-font-specification:'xkcd Script, Normal';fill:#8000ff;fill-opacity:1;stroke-width:0.264583"
       aria-label="F" />
  </g>
</svg>
