<?xml version="1.0" encoding="UTF-8" standalone="no"?>
<!-- Created with Inkscape (http://www.inkscape.org/) -->

<svg
   width="60"
   height="60"
   viewBox="0 0 15.875 15.875"
   version="1.1"
   id="svg1"
   inkscape:version="1.3 (0e150ed, 2023-07-21)"
   sodipodi:docname="modefan.svg"
   xmlns:inkscape="http://www.inkscape.org/namespaces/inkscape"
   xmlns:sodipodi="http://sodipodi.sourceforge.net/DTD/sodipodi-0.dtd"
   xmlns="http://www.w3.org/2000/svg"
   xmlns:svg="http://www.w3.org/2000/svg">
  <sodipodi:namedview
     id="namedview1"
     pagecolor="#808080"
     bordercolor="#666666"
     borderopacity="1.0"
     inkscape:showpageshadow="2"
     inkscape:pageopacity="0.0"
     inkscape:pagecheckerboard="0"
     inkscape:deskcolor="#d1d1d1"
     inkscape:document-units="mm"
     inkscape:zoom="12.9"
     inkscape:cx="30"
     inkscape:cy="30.03876"
     inkscape:window-width="1664"
     inkscape:window-height="1248"
     inkscape:window-x="2560"
     inkscape:window-y="25"
     inkscape:window-maximized="0"
     inkscape:current-layer="layer1" />
  <defs
     id="defs1" />
  <g
     inkscape:label="Layer 1"
     inkscape:groupmode="layer"
     id="layer1"
     transform="translate(0,-281.12499)">
    <path
       style="fill:#00ffff;fill-opacity:1;stroke:#00ffff;stroke-width:0.264583;stroke-dasharray:none;stroke-opacity:1"
       id="path1032"
       d="m 8.8016328,286.85887 c 0.2942584,0.10723 0.5647057,0.26873 0.809638,0.48817 0.2619416,0.23471 0.4915662,0.53068 0.6888742,0.89298 0.09355,0 0.188802,0.002 0.282353,0.005 0.170091,0.007 0.33338,0.0187 0.493267,0.0358 0.668463,0.0765 1.173636,0.28234 1.677108,0.48986 0.321475,0.13092 0.642948,0.26364 1.006946,0.35209 0.0033,0.002 0.0068,0.002 0.01193,0.004 0.12246,0.0289 0.233025,0.0358 0.32998,0.0254 0.173492,-0.0187 0.311268,-0.0987 0.416724,-0.21772 0.119058,-0.13431 0.204111,-0.31977 0.255139,-0.52559 0.05612,-0.22622 0.06804,-0.47454 0.04422,-0.70927 -0.02212,-0.21091 -0.07314,-0.42352 -0.13947,-0.63275 -0.06974,-0.21601 -0.15479,-0.42523 -0.248336,-0.62423 -0.08506,-0.18029 -0.181998,-0.35379 -0.287456,-0.51878 -0.105448,-0.16334 -0.221119,-0.32318 -0.348687,-0.48137 -0.420128,-0.52047 -0.862367,-0.87766 -1.306308,-1.08349 -0.40482,-0.18709 -0.813041,-0.24832 -1.205955,-0.19219 -0.396314,0.0577 -0.782423,0.23473 -1.141317,0.52388 -0.4609511,0.3708 -0.8742743,0.92361 -1.2059547,1.64139 -0.056125,0.12076 -0.091857,0.24493 -0.1122534,0.3691 -0.010152,0.0528 -0.0171,0.10545 -0.020412,0.15818 z m -3.0684629,1.38965 c 0.1054564,-0.29597 0.2670446,-0.56641 0.4847625,-0.81133 0.2313254,-0.26024 0.5289866,-0.48988 0.8912825,-0.68888 0,-0.0953 0,-0.18881 0.00344,-0.28405 0.00511,-0.16833 0.017011,-0.3334 0.035713,-0.49328 0.074836,-0.67355 0.2806522,-1.17703 0.4847631,-1.6788 0.132671,-0.32656 0.2653429,-0.65316 0.3520901,-1.00695 0.030622,-0.12753 0.039113,-0.24151 0.027212,-0.34188 -0.018702,-0.17171 -0.1003543,-0.31127 -0.2194191,-0.41673 -0.1360733,-0.12076 -0.3197735,-0.2041 -0.5255845,-0.25343 -0.2262227,-0.0545 -0.4745572,-0.068 -0.709284,-0.0408 -0.2126153,0.0239 -0.4252304,0.0732 -0.6327429,0.14125 -0.2126151,0.068 -0.4218285,0.15478 -0.6225373,0.25003 -0.1802975,0.0851 -0.3520908,0.182 -0.5187809,0.28916 -0.168391,0.10883 -0.3282779,0.22453 -0.47966,0.34868 -0.520482,0.42183 -0.8776754,0.86577 -1.081786,1.31142 -0.1871014,0.40482 -0.2466337,0.81304 -0.1888022,1.20423 0.057832,0.39632 0.236428,0.78243 0.5255847,1.13963 0.3725018,0.45924 0.9270022,0.87256 1.6447909,1.20424 0.1207661,0.0561 0.2449328,0.0901 0.3691,0.11062 0.05443,0.007 0.1071574,0.0125 0.1598875,0.0178 z m -0.0085,0.64805 c -0.085045,-0.005 -0.1700922,-0.0143 -0.2551382,-0.0272 -0.1802978,-0.0289 -0.3605955,-0.08 -0.5357903,-0.16155 -0.8096386,-0.37251 -1.4423815,-0.84876 -1.8761165,-1.38455 -0.3639971,-0.45075 -0.5902196,-0.94232 -0.6650603,-1.4543 -0.076541,-0.51536 0.0017,-1.04775 0.2415309,-1.56994 0.2449327,-0.53239 0.6616586,-1.05627 1.2620837,-1.54101 0.1734943,-0.14126 0.3537917,-0.27216 0.5391921,-0.39123 0.1871014,-0.12077 0.3844083,-0.23132 0.5919206,-0.32998 0.22112,-0.10367 0.4558472,-0.2007 0.7007798,-0.28065 0.2483346,-0.08 0.5051736,-0.14125 0.7603118,-0.16833 0.3061661,-0.034 0.631042,-0.0178 0.9321059,0.0561 0.3044642,0.0748 0.5868175,0.20583 0.8045355,0.39973 0.2347284,0.20751 0.3946136,0.48305 0.4320337,0.83004 0.018702,0.17188 0.00678,0.36061 -0.042514,0.5647 -0.1003552,0.40994 -0.2398317,0.75351 -0.3793063,1.09881 -0.1871015,0.46095 -0.3759031,0.9253 -0.4405384,1.5053 -0.017011,0.15301 -0.027212,0.29937 -0.032323,0.44225 -0.00344,0.0987 -0.00511,0.19731 -0.00344,0.29594 0.095248,-0.0125 0.193905,-0.0187 0.2925582,-0.0187 0.035723,0 0.071436,0.002 0.1071578,0.002 0.00511,-0.0561 0.011901,-0.114 0.022112,-0.17011 0.028912,-0.17858 0.081647,-0.35888 0.1632875,-0.53408 0.3759041,-0.80964 0.8521624,-1.44238 1.3896539,-1.87441 0.4507447,-0.3623 0.9423107,-0.58681 1.4559897,-0.66165 0.515378,-0.0748 1.046067,0.004 1.568249,0.24493 0.532387,0.24663 1.054571,0.66506 1.541036,1.26719 0.137779,0.1701 0.267043,0.34868 0.389511,0.53917 0.120768,0.1888 0.231325,0.38612 0.328276,0.59193 0.10545,0.22282 0.20241,0.45755 0.278953,0.69908 0.07995,0.24832 0.13947,0.50518 0.166688,0.76201 0.03231,0.30616 0.01532,0.63104 -0.05784,0.9321 -0.07485,0.30276 -0.205811,0.58341 -0.401418,0.80284 -0.209214,0.23472 -0.484762,0.39291 -0.831751,0.43033 -0.168398,0.0187 -0.352089,0.007 -0.549397,-0.0408 -0.005,-0.002 -0.01015,-0.002 -0.01532,-0.004 -0.399715,-0.0987 -0.748404,-0.23983 -1.095393,-0.3827 -0.459249,-0.18711 -0.920198,-0.37589 -1.507018,-0.44394 -0.153079,-0.0178 -0.299359,-0.0289 -0.442238,-0.034 -0.06123,-0.002 -0.12417,-0.004 -0.185401,-0.004 0.0068,0.0699 0.0086,0.13947 0.0086,0.2092 0,0.0595 -0.0017,0.11899 -0.0068,0.17861 0.107159,0.009 0.216016,0.0221 0.323175,0.046 0.176895,0.0374 0.353791,0.0969 0.527286,0.18711 0.792629,0.40992 1.403261,0.91508 1.81148,1.47128 0.341886,0.46435 0.544295,0.96782 0.595324,1.4832 0.05272,0.51879 -0.04932,1.04607 -0.31297,1.55636 -0.270446,0.52216 -0.710985,1.02563 -1.333522,1.48319 -0.178597,0.13092 -0.362296,0.25344 -0.554501,0.36569 -0.193905,0.11222 -0.396314,0.21432 -0.607229,0.30277 -0.227923,0.0953 -0.467753,0.182 -0.712686,0.24832 -0.2500358,0.068 -0.506876,0.11561 -0.7688177,0.13271 -0.3061663,0.0204 -0.6310411,-0.0125 -0.9287037,-0.10029 -0.3010629,-0.0885 -0.5749106,-0.23132 -0.7841239,-0.43543 -0.2245215,-0.21942 -0.3725018,-0.50178 -0.3946146,-0.85046 -0.010201,-0.1717 0.010211,-0.36061 0.069736,-0.56131 0.1190649,-0.40483 0.2738477,-0.7416 0.4303326,-1.08007 0.2092133,-0.45246 0.4184266,-0.9066 0.5102762,-1.48491 0.022112,-0.13947 0.039123,-0.28746 0.051034,-0.44054 0.00511,-0.0629 0.00845,-0.12255 0.011901,-0.182 -0.086747,0.0107 -0.1734944,0.016 -0.2636428,0.016 -0.108858,0 -0.2160169,-0.007 -0.3214736,-0.0221 -0.00344,0.034 -0.00845,0.068 -0.013611,0.10028 -0.027212,0.1803 -0.074836,0.36059 -0.1547838,0.53749 -0.3605958,0.81474 -0.8283484,1.45428 -1.3590365,1.89652 -0.4439404,0.3708 -0.9338058,0.60213 -1.4440822,0.68547 -0.5153792,0.0833 -1.0477675,0.0143 -1.5716515,-0.21772 -0.535818,-0.23798 -1.0648048,-0.64791 -1.5614737,-1.24152 -0.1445777,-0.1735 -0.2772501,-0.35039 -0.3980155,-0.53239 -0.119065,-0.18371 -0.23132544,-0.37761 -0.33508162,-0.58681 -0.10885851,-0.22284 -0.21091434,-0.45755 -0.29085765,-0.69569 -0.0833459,-0.24834 -0.14797983,-0.50348 -0.1802976,-0.7586 -0.0374201,-0.30447 -0.0255141,-0.62935 0.0442246,-0.9321 0.0697368,-0.30447 0.19730672,-0.58852 0.38781006,-0.80965 0.20581141,-0.23813 0.47795881,-0.40141 0.82494691,-0.44563 0.1700922,-0.0221 0.3588944,-0.0125 0.5647059,0.0358 0.409922,0.0935 0.7569099,0.22963 1.1038979,0.364 0.4643515,0.182 0.930404,0.36229 1.5121193,0.42013 0.1496809,0.016 0.2976611,0.0239 0.4439404,0.0254 0.1377752,0.004 0.2789511,0 0.4235294,-0.007 -0.0034,-0.0493 -0.00511,-0.10028 -0.00511,-0.14962 0,-0.0662 0.0017,-0.1327 0.0068,-0.19902 z m 3.515805,-0.99163 c -0.3044652,-0.30447 -0.7262951,-0.49328 -1.1906455,-0.49328 -0.4643514,0 -0.8861792,0.18881 -1.1906444,0.49328 -0.3044655,0.30446 -0.4932678,0.72627 -0.4932678,1.19063 0,0.46435 0.1888023,0.88618 0.4932678,1.19065 0.3044652,0.30446 0.726293,0.49327 1.1906444,0.49327 0.4643504,0 0.8861803,-0.18881 1.1906455,-0.49327 0.3044651,-0.30447 0.4932667,-0.7263 0.4932667,-1.19065 0,-0.46436 -0.1888016,-0.88617 -0.4932667,-1.19063 z m -2.1499648,3.34909 c -0.2959605,-0.10206 -0.569809,-0.25852 -0.8181436,-0.47454 -0.2653438,-0.22963 -0.500071,-0.52218 -0.7041815,-0.88108 -0.093551,0.002 -0.1871014,0.002 -0.2840537,0 -0.164989,-0.004 -0.3299789,-0.0125 -0.4915666,-0.0289 -0.6752657,-0.0662 -1.1821403,-0.26364 -1.6856129,-0.46094 -0.326577,-0.12754 -0.6548548,-0.25515 -1.0103473,-0.33679 -0.1275687,-0.0289 -0.2415308,-0.0358 -0.3435862,-0.0221 -0.1734942,0.0221 -0.3095677,0.10367 -0.4133239,0.22453 -0.117364,0.13608 -0.1990079,0.32147 -0.2466335,0.52727 -0.051027,0.22624 -0.061234,0.47456 -0.030615,0.711 0.027213,0.2109 0.079944,0.42352 0.149681,0.62933 0.073139,0.21771 0.1632878,0.42523 0.25854,0.61914 0.086746,0.17687 0.1854004,0.34699 0.2959604,0.51367 0.1122607,0.16832 0.2313252,0.32659 0.3554924,0.47627 0.4269314,0.51198 0.8759746,0.86237 1.3250179,1.06136 0.409922,0.18201 0.8181431,0.23644 1.2093552,0.1735 0.3946136,-0.0647 0.7790217,-0.24832 1.1328136,-0.54259 0.452445,-0.3776 0.8572646,-0.93721 1.1787382,-1.6618 0.054434,-0.12077 0.086747,-0.24663 0.1054587,-0.3708 0.00845,-0.0493 0.013611,-0.10367 0.017011,-0.15657 z m 3.3184979,-1.325 c -0.119058,0.29085 -0.292558,0.55278 -0.5238838,0.78751 -0.2449333,0.25005 -0.5510996,0.46606 -0.9218993,0.64806 -0.00334,0.0987 -0.00855,0.1922 -0.016923,0.28236 -0.011931,0.15817 -0.032313,0.32147 -0.059525,0.49156 -0.1071589,0.67015 -0.3350808,1.16343 -0.5613054,1.655 -0.1479793,0.31977 -0.2942584,0.63784 -0.3980149,0.98823 -0.037423,0.12593 -0.049324,0.23982 -0.044224,0.34187 0.011901,0.17349 0.085047,0.31467 0.1990084,0.42523 0.1292697,0.12593 0.3112678,0.21941 0.5119774,0.27897 0.2228204,0.0647 0.4711549,0.0901 0.7075825,0.0748 0.2092133,-0.0143 0.4252311,-0.0545 0.6378467,-0.11222 0.2194184,-0.0594 0.4320334,-0.13608 0.6327414,-0.22111 0.185402,-0.0766 0.362297,-0.16495 0.530688,-0.26365 0.1718,-0.0987 0.336784,-0.2092 0.496669,-0.32656 0.539194,-0.39633 0.915097,-0.82326 1.141319,-1.25698 0.205811,-0.39632 0.284054,-0.80114 0.244933,-1.19575 -0.03911,-0.39801 -0.20071,-0.79094 -0.474558,-1.16343 -0.350391,-0.47626 -0.88448,-0.9134 -1.586959,-1.2774 -0.117366,-0.0612 -0.239831,-0.10206 -0.363998,-0.12753 -0.04592,-0.016 -0.09866,-0.0239 -0.151387,-0.0289 z"
       sodipodi:nodetypes="cccccccccccccccccccccccsccccccccccccccccccccccccccccccccccccccsccccccccccccccccccccscccccccccccccccccccscccccccccccccccccccscssssssssscccccccccccccccccccccccccccccccccccccccccc" />
  </g>
</svg>
