<?xml version="1.0" encoding="UTF-8" standalone="no"?>
<!-- Created with Inkscape (http://www.inkscape.org/) -->

<svg
   width="60"
   height="60"
   viewBox="0 0 15.875 15.875"
   version="1.1"
   id="svg1"
   inkscape:version="1.3 (0e150ed, 2023-07-21)"
   sodipodi:docname="modefaikin.svg"
   xmlns:inkscape="http://www.inkscape.org/namespaces/inkscape"
   xmlns:sodipodi="http://sodipodi.sourceforge.net/DTD/sodipodi-0.dtd"
   xmlns="http://www.w3.org/2000/svg"
   xmlns:svg="http://www.w3.org/2000/svg">
  <sodipodi:namedview
     id="namedview1"
     pagecolor="#808080"
     bordercolor="#666666"
     borderopacity="1.0"
     inkscape:showpageshadow="2"
     inkscape:pageopacity="0.0"
     inkscape:pagecheckerboard="0"
     inkscape:deskcolor="#d1d1d1"
     inkscape:document-units="mm"
     inkscape:zoom="12.583333"
     inkscape:cx="30.079471"
     inkscape:cy="30.000001"
     inkscape:window-width="1664"
     inkscape:window-height="1248"
     inkscape:window-x="3069"
     inkscape:window-y="25"
     inkscape:window-maximized="0"
     inkscape:current-layer="layer1"
     showgrid="false" />
  <defs
     id="defs1" />
  <g
     inkscape:label="Layer 1"
     inkscape:groupmode="layer"
     id="layer1"
     transform="translate(0,-281.12499)">
    <ellipse
       style="fill:#000000;fill-opacity:1;stroke:#ff00ff;stroke-width:1.05833;stroke-linecap:round;stroke-linejoin:round;stroke-dasharray:none;stroke-dashoffset:0;stroke-opacity:1"
       id="path1"
       cx="7.9375"
       cy="289.0625"
       rx="6.8791676"
       ry="6.8791685" />
    <path
       d="m 6.4884286,284.04674 q 0.2383085,-0.0338 1.0632227,0.0338 0.8249141,0.0507 1.1182169,0.11819 0.091657,0.0338 1.0632227,0.10131 1.7964801,0.13507 1.8514741,0.16883 l 0.109988,0.0507 q 0.12832,0 0.201646,0.33769 0.03666,0.18572 -0.12832,0.48963 -0.146651,0.28704 -0.293303,0.32081 -0.366628,0 -0.714925,-0.0169 -1.0448916,-0.0507 -1.1182173,-0.0507 -0.2749713,-0.0168 -0.4582856,-0.0338 -0.1833142,-0.0338 -0.2933028,-0.0338 -0.1099885,0 -0.4399542,-0.0507 -0.3299656,-0.0507 -0.3849599,-0.0507 -1.0265598,-0.11819 -1.2098741,-0.1013 -0.1649828,0.0169 -0.2933028,0.23637 -0.054994,0.0845 -0.2383085,0.72602 -0.3116342,1.23255 -0.3849599,2.17806 l -0.018331,0.33768 0.1649829,-0.0169 q 0.018331,0 0.7882512,-0.0507 0.7699199,-0.0675 1.0265599,-0.10131 0.3666285,-0.0338 0.8432455,0 0.3849599,0.0338 0.4216228,0.0507 0.091657,0.0338 0.1833142,0.27015 0.1099886,0.21949 0.091657,0.3039 -0.018331,0.0675 -0.091657,0.15197 -0.073326,0.0675 -0.1099885,0.0675 -0.073326,0 -0.1466514,0.10131 -0.25664,0.25326 -1.4298512,0.38833 l -1.0998855,0.0845 -0.7882513,0.0507 -0.054994,0.54028 q -0.036663,0.27015 -0.091657,0.59095 -0.054994,0.3208 -0.073326,0.48964 -0.036663,0.43899 -0.1649828,0.81044 -0.018331,0.0507 -0.036663,0.16884 -0.018331,0.1013 -0.054994,0.18572 -0.018331,0.0675 -0.054994,0.10131 -0.036663,0.0338 -0.073326,0.13507 -0.036663,0.0845 -0.1466514,0.13507 -0.1466514,0.0507 -0.4216228,0.0169 -0.3116342,-0.0338 -0.4216228,-0.0675 -0.091657,-0.0507 -0.1466514,-0.16885 -0.1283199,-0.21949 0.018332,-1.0637 0.1833142,-1.01304 0.2383085,-1.55334 0.036663,-0.45587 0.091657,-1.18189 0.073326,-0.72602 0.091657,-0.96239 0.036663,-0.23638 0.091657,-0.69225 0.073326,-0.45587 0.2016456,-1.01305 0.1649829,-0.79355 0.2933028,-1.01305 0.036663,-0.0675 0.12832,-0.35457 0.1099886,-0.28702 0.1649828,-0.37145 0.018331,-0.0169 0.054994,-0.0845 0.036663,-0.0675 0.054994,-0.0844 0.073326,-0.16885 0.4032914,-0.37145 0.3299656,-0.20262 0.6232684,-0.25327 z"
       id="text1"
       style="font-size:15.6917px;line-height:1.25;font-family:'xkcd Script';-inkscape-font-specification:'xkcd Script, Normal';fill:#fffff2;fill-opacity:1;stroke-width:0.253924"
       aria-label="F" />
  </g>
</svg>
