<?xml version="1.0" encoding="UTF-8" standalone="no"?>
<!-- Created with Inkscape (http://www.inkscape.org/) -->

<svg
   width="60"
   height="60"
   viewBox="0 0 15.875 15.875"
   version="1.1"
   id="svg1"
   inkscape:version="1.3 (0e150ed, 2023-07-21)"
   sodipodi:docname="modefaikinheat.svg"
   xmlns:inkscape="http://www.inkscape.org/namespaces/inkscape"
   xmlns:sodipodi="http://sodipodi.sourceforge.net/DTD/sodipodi-0.dtd"
   xmlns="http://www.w3.org/2000/svg"
   xmlns:svg="http://www.w3.org/2000/svg">
  <sodipodi:namedview
     id="namedview1"
     pagecolor="#808080"
     bordercolor="#666666"
     borderopacity="1.0"
     inkscape:showpageshadow="2"
     inkscape:pageopacity="0.0"
     inkscape:pagecheckerboard="0"
     inkscape:deskcolor="#d1d1d1"
     inkscape:document-units="mm"
     inkscape:zoom="13.482142"
     inkscape:cx="30.00265"
     inkscape:cy="30.00265"
     inkscape:window-width="1664"
     inkscape:window-height="1248"
     inkscape:window-x="3432"
     inkscape:window-y="25"
     inkscape:window-maximized="0"
     inkscape:current-layer="layer1"
     showgrid="false" />
  <defs
     id="defs1" />
  <g
     inkscape:label="Layer 1"
     inkscape:groupmode="layer"
     id="layer1"
     transform="translate(0,-281.12499)">
    <ellipse
       style="fill:#ff0000;fill-opacity:1;stroke:#ff00ff;stroke-width:1.05833;stroke-linecap:round;stroke-linejoin:round;stroke-dasharray:none;stroke-dashoffset:0;stroke-opacity:1"
       id="path1"
       cx="7.9375"
       cy="289.0625"
       rx="6.8791685"
       ry="6.8791695" />
    <path
       d="m 6.6028357,284.04674 q 0.2194937,-0.0338 0.9792797,0.0338 0.759786,0.0507 1.0299321,0.11819 0.084421,0.0338 0.9792797,0.10131 1.6546448,0.13507 1.7052978,0.16883 l 0.101304,0.0507 q 0.118189,0 0.185726,0.33769 0.03376,0.18572 -0.118189,0.48963 -0.135073,0.28704 -0.270147,0.32081 -0.337682,0 -0.65848,-0.0169 -0.962396,-0.0507 -1.0299325,-0.0507 -0.253262,-0.0168 -0.4221033,-0.0338 -0.1688413,-0.0338 -0.2701461,-0.0338 -0.1013048,0 -0.4052192,-0.0507 -0.3039144,-0.0507 -0.3545668,-0.0507 -0.9455114,-0.11819 -1.1143527,-0.1013 -0.1519572,0.0169 -0.2701462,0.23637 -0.050652,0.0845 -0.2194937,0.72602 -0.2870302,1.23255 -0.3545667,2.17806 l -0.016884,0.33768 0.1519573,-0.0169 q 0.016884,0 0.7260176,-0.0507 0.7091336,-0.0675 0.9455115,-0.10131 0.3376827,-0.0338 0.7766701,0 0.3545667,0.0338 0.388335,0.0507 0.084421,0.0338 0.1688413,0.27015 0.1013048,0.21949 0.084421,0.3039 -0.016884,0.0675 -0.084421,0.15197 -0.067537,0.0675 -0.1013048,0.0675 -0.067537,0 -0.135073,0.10131 -0.2363779,0.25326 -1.3169624,0.38833 l -1.0130479,0.0845 -0.7260177,0.0507 -0.050652,0.54028 q -0.033768,0.27015 -0.084421,0.59095 -0.050652,0.3208 -0.067537,0.48964 -0.033768,0.43899 -0.1519572,0.81044 -0.016884,0.0507 -0.033768,0.16884 -0.016884,0.1013 -0.050652,0.18572 -0.016884,0.0675 -0.050652,0.10131 -0.033768,0.0338 -0.067537,0.13507 -0.033768,0.0845 -0.135073,0.13507 -0.1350731,0.0507 -0.3883351,0.0169 -0.2870302,-0.0338 -0.3883351,-0.0675 -0.08442,-0.0507 -0.135073,-0.16885 -0.1181889,-0.21949 0.016885,-1.0637 0.1688412,-1.01304 0.2194936,-1.55334 0.033769,-0.45587 0.084421,-1.18189 0.067537,-0.72602 0.084421,-0.96239 0.033768,-0.23638 0.084421,-0.69225 0.067537,-0.45587 0.1857254,-1.01305 0.1519572,-0.79355 0.2701461,-1.01305 0.033768,-0.0675 0.1181889,-0.35457 0.1013049,-0.28702 0.1519572,-0.37145 0.016884,-0.0169 0.050652,-0.0845 0.033768,-0.0675 0.050652,-0.0844 0.067537,-0.16885 0.3714509,-0.37145 0.3039144,-0.20262 0.5740605,-0.25327 z"
       id="text1"
       style="font-size:15.6917px;line-height:1.25;font-family:'xkcd Script';-inkscape-font-specification:'xkcd Script, Normal';fill:#fffbff;fill-opacity:1;stroke-width:0.243694"
       aria-label="F" />
  </g>
</svg>
