<?xml version="1.0" encoding="UTF-8" standalone="no"?>
<!-- Created with Inkscape (http://www.inkscape.org/) -->

<svg
   width="60"
   height="60"
   viewBox="0 0 15.875 15.875"
   version="1.1"
   id="svg1"
   inkscape:version="1.3 (0e150ed, 2023-07-21)"
   sodipodi:docname="modefan.svg"
   xmlns:inkscape="http://www.inkscape.org/namespaces/inkscape"
   xmlns:sodipodi="http://sodipodi.sourceforge.net/DTD/sodipodi-0.dtd"
   xmlns="http://www.w3.org/2000/svg"
   xmlns:svg="http://www.w3.org/2000/svg">
  <sodipodi:namedview
     id="namedview1"
     pagecolor="#808080"
     bordercolor="#666666"
     borderopacity="1.0"
     inkscape:showpageshadow="2"
     inkscape:pageopacity="0.0"
     inkscape:pagecheckerboard="0"
     inkscape:deskcolor="#d1d1d1"
     inkscape:document-units="mm"
     inkscape:zoom="12.9"
     inkscape:cx="30"
     inkscape:cy="30.03876"
     inkscape:window-width="1664"
     inkscape:window-height="1248"
     inkscape:window-x="2560"
     inkscape:window-y="25"
     inkscape:window-maximized="0"
     inkscape:current-layer="layer1" />
  <defs
     id="defs1" />
  <g
     inkscape:label="Layer 1"
     inkscape:groupmode="layer"
     id="layer1"
     transform="translate(0,-281.12499)">
    <path
       style="stroke-width:0.0954908;stroke:none;stroke-opacity:1;fill:#00ffff;fill-opacity:1"
       id="path1032"
       d="m 8.8167966,286.82011 c 0.299424,0.10911 0.574619,0.27345 0.823851,0.49674 0.26654,0.23883 0.5001954,0.54 0.7009674,0.90866 0.09519,0 0.192116,0.002 0.287309,0.005 0.173077,0.007 0.339233,0.019 0.501927,0.0364 0.680197,0.0779 1.194239,0.2873 1.706549,0.49846 0.327118,0.13322 0.654235,0.26827 1.024623,0.35827 0.0034,0.002 0.0069,0.002 0.01214,0.004 0.12461,0.0294 0.237116,0.0364 0.335773,0.0259 0.176538,-0.019 0.316732,-0.10041 0.424039,-0.22154 0.121148,-0.13667 0.207695,-0.32539 0.259618,-0.53482 0.05711,-0.23019 0.06924,-0.48287 0.045,-0.72172 -0.02251,-0.21462 -0.07442,-0.43096 -0.141919,-0.64386 -0.07096,-0.2198 -0.157507,-0.4327 -0.252695,-0.63519 -0.08655,-0.18346 -0.185193,-0.36 -0.292502,-0.52789 -0.1073,-0.16621 -0.225001,-0.32885 -0.354809,-0.48982 -0.427503,-0.52961 -0.877505,-0.89307 -1.32924,-1.10251 -0.411926,-0.19038 -0.827313,-0.25268 -1.227125,-0.19557 -0.403271,0.0587 -0.796158,0.23885 -1.161352,0.53308 -0.4690434,0.37731 -0.8896224,0.93982 -1.2271254,1.67021 -0.05711,0.12288 -0.09347,0.24923 -0.114224,0.37558 -0.01033,0.0537 -0.0174,0.1073 -0.02077,0.16095 z m -3.1223293,1.41405 c 0.1073077,-0.30117 0.2717325,-0.57636 0.4932724,-0.82558 0.2353863,-0.26481 0.5382729,-0.49848 0.9069289,-0.70097 0,-0.097 0,-0.19213 0.0035,-0.28904 0.0052,-0.17128 0.01731,-0.33925 0.03634,-0.50194 0.07615,-0.68538 0.285579,-1.19769 0.493273,-1.70827 0.135,-0.3323 0.270001,-0.66463 0.358271,-1.02463 0.03116,-0.12977 0.0398,-0.24575 0.02769,-0.34789 -0.01903,-0.17472 -0.102116,-0.31673 -0.223271,-0.42404 -0.138462,-0.12288 -0.325387,-0.20769 -0.534811,-0.25788 -0.230194,-0.0555 -0.482888,-0.0692 -0.7217354,-0.0415 -0.2163477,0.0243 -0.4326952,0.0745 -0.6438506,0.14373 -0.2163475,0.0692 -0.4292336,0.1575 -0.6334658,0.25442 -0.1834626,0.0866 -0.3582717,0.1852 -0.527888,0.29424 -0.1713471,0.11074 -0.3340408,0.22847 -0.4880803,0.3548 -0.529619,0.42924 -0.8930829,0.88097 -1.1007766,1.33444 -0.1903859,0.41193 -0.2509633,0.82732 -0.1921166,1.22538 0.058847,0.40328 0.2405785,0.79616 0.5348112,1.15964 0.379041,0.4673 0.9432756,0.88788 1.673665,1.22538 0.1228861,0.0571 0.2492325,0.0917 0.3755794,0.11256 0.055385,0.007 0.1090386,0.0127 0.1626943,0.0181 z m -0.00865,0.65942 c -0.086538,-0.005 -0.1730781,-0.0145 -0.2596171,-0.0277 -0.1834629,-0.0294 -0.3669257,-0.0814 -0.545196,-0.16439 -0.8238517,-0.37905 -1.4677023,-0.86366 -1.9090514,-1.40886 -0.370387,-0.45866 -0.6005808,-0.95886 -0.6767353,-1.47983 -0.077885,-0.52441 0.00173,-1.06615 0.2457709,-1.5975 0.2492325,-0.54174 0.6732739,-1.07482 1.2842394,-1.56807 0.1765399,-0.14374 0.3600024,-0.27694 0.5486575,-0.3981 0.1903859,-0.12289 0.3911565,-0.23538 0.6023117,-0.33577 0.2250017,-0.10549 0.4638495,-0.20423 0.7130818,-0.28558 0.2526941,-0.0814 0.5140419,-0.14373 0.773659,-0.17128 0.3115408,-0.0346 0.6421198,-0.0181 0.9484688,0.0571 0.309809,0.0761 0.597119,0.20944 0.818659,0.40675 0.238849,0.21115 0.401541,0.49153 0.439618,0.84461 0.01903,0.1749 0.0069,0.36694 -0.04326,0.57462 -0.102117,0.41713 -0.244042,0.76674 -0.385965,1.1181 -0.190386,0.46904 -0.382502,0.94154 -0.448272,1.53173 -0.01731,0.15569 -0.02769,0.30462 -0.03289,0.45001 -0.0035,0.10041 -0.0052,0.20077 -0.0035,0.30114 0.09692,-0.0127 0.197309,-0.019 0.297694,-0.019 0.03635,0 0.07269,0.002 0.109039,0.002 0.0052,-0.0571 0.01211,-0.116 0.0225,-0.17309 0.02942,-0.18172 0.08308,-0.36518 0.166154,-0.54346 0.382503,-0.82386 0.867122,-1.4677 1.414049,-1.90732 0.4586574,-0.36866 0.9588524,-0.59711 1.4815494,-0.67327 0.524425,-0.0761 1.06443,0.004 1.595779,0.24923 0.541733,0.25096 1.073084,0.67674 1.568089,1.28944 0.140197,0.17309 0.271731,0.3548 0.396348,0.54864 0.122888,0.19211 0.235386,0.3929 0.334039,0.60232 0.107301,0.22673 0.205964,0.46558 0.28385,0.71135 0.08135,0.25268 0.141919,0.51405 0.169614,0.77539 0.03288,0.31154 0.01559,0.64212 -0.05885,0.94847 -0.07616,0.30807 -0.209424,0.59365 -0.408465,0.81693 -0.212886,0.23884 -0.493272,0.39981 -0.846352,0.43789 -0.171354,0.019 -0.35827,0.007 -0.559042,-0.0415 -0.0051,-0.002 -0.01033,-0.002 -0.01559,-0.004 -0.406732,-0.10042 -0.761543,-0.24404 -1.114623,-0.38942 -0.467311,-0.19039 -0.936352,-0.38249 -1.533473,-0.45173 -0.155767,-0.0181 -0.304615,-0.0294 -0.450002,-0.0346 -0.06231,-0.002 -0.12635,-0.004 -0.188655,-0.004 0.0069,0.0711 0.0087,0.14192 0.0087,0.21288 0,0.0605 -0.0017,0.12108 -0.0069,0.18174 0.10904,0.009 0.219808,0.0225 0.328848,0.0468 0.18,0.0381 0.360002,0.0986 0.536542,0.1904 0.806544,0.41711 1.427895,0.93114 1.843281,1.49711 0.347887,0.4725 0.55385,0.98481 0.605774,1.50924 0.05365,0.52789 -0.05019,1.06443 -0.318464,1.58368 -0.275193,0.53133 -0.723466,1.04364 -1.356932,1.50923 -0.181732,0.13322 -0.368656,0.25789 -0.564235,0.37211 -0.197309,0.11419 -0.403271,0.21808 -0.617889,0.30809 -0.231924,0.097 -0.475964,0.18519 -0.725196,0.25268 -0.2544254,0.0692 -0.5157744,0.11764 -0.7823144,0.13504 -0.311541,0.0207 -0.642119,-0.0127 -0.945007,-0.10205 -0.306348,-0.0901 -0.585003,-0.23539 -0.797889,-0.44308 -0.228463,-0.22327 -0.379041,-0.51059 -0.401542,-0.86539 -0.01038,-0.17472 0.01039,-0.36694 0.07096,-0.57117 0.121155,-0.41193 0.278655,-0.75462 0.437887,-1.09903 0.212886,-0.4604 0.425772,-0.92251 0.519234,-1.51098 0.0225,-0.14192 0.03981,-0.2925 0.05193,-0.44827 0.0052,-0.064 0.0086,-0.1247 0.01211,-0.1852 -0.08827,0.0109 -0.17654,0.0163 -0.268271,0.0163 -0.110769,0 -0.219809,-0.007 -0.327117,-0.0225 -0.0035,0.0346 -0.0086,0.0692 -0.01385,0.10204 -0.02769,0.18346 -0.07615,0.36692 -0.157501,0.54692 -0.366926,0.82905 -0.84289,1.47981 -1.3828942,1.92982 -0.4517337,0.37731 -0.9501986,0.6127 -1.4694328,0.6975 -0.5244266,0.0848 -1.0661609,0.0145 -1.5992416,-0.22154 -0.5451958,-0.2423 -1.0834688,-0.65943 -1.5888567,-1.26346 -0.1471157,-0.17654 -0.2821172,-0.35654 -0.4050026,-0.54174 -0.12115518,-0.18693 -0.23538628,-0.38423 -0.34096388,-0.59711 -0.1107695,-0.22675 -0.2146169,-0.46558 -0.2959636,-0.7079 -0.084809,-0.2527 -0.1505776,-0.51232 -0.1834627,-0.77192 -0.038077,-0.30982 -0.025962,-0.6404 0.045001,-0.94847 0.070961,-0.30981 0.2007704,-0.59885 0.394618,-0.82386 0.2094244,-0.24231 0.48634928,-0.40846 0.83942868,-0.45345 0.1730781,-0.0225 0.3651947,-0.0127 0.5746192,0.0364 0.4171181,0.0952 0.7701973,0.23367 1.1232766,0.37039 0.4725031,0.1852 0.9467371,0.36866 1.5386643,0.42751 0.1523085,0.0163 0.3028865,0.0243 0.4517337,0.0259 0.1401938,0.004 0.283848,0 0.4309644,-0.007 -0.00346,-0.0502 -0.0052,-0.10204 -0.0052,-0.15225 0,-0.0674 0.00173,-0.13503 0.00692,-0.20251 z m 3.5775243,-1.00904 c -0.30981,-0.30981 -0.739045,-0.50194 -1.211547,-0.50194 -0.472503,0 -0.901736,0.19213 -1.211546,0.50194 -0.3098103,0.30981 -0.501927,0.73903 -0.501927,1.21154 0,0.4725 0.1921167,0.90174 0.501927,1.21155 0.30981,0.30981 0.739043,0.50193 1.211546,0.50193 0.472502,0 0.901737,-0.19212 1.211547,-0.50193 0.30981,-0.30981 0.501926,-0.73905 0.501926,-1.21155 0,-0.47251 -0.192116,-0.90173 -0.501926,-1.21154 z m -2.187707,3.40789 c -0.301156,-0.10385 -0.5798119,-0.26306 -0.832506,-0.48287 -0.2700018,-0.23366 -0.5088496,-0.53135 -0.7165433,-0.89655 -0.095193,0.002 -0.1903859,0.002 -0.2890402,0 -0.1678853,-0.004 -0.3357716,-0.0127 -0.5001959,-0.0294 -0.6871199,-0.0674 -1.2028926,-0.26827 -1.7152036,-0.46904 -0.33231,-0.12978 -0.6663506,-0.25963 -1.0280838,-0.3427 -0.1298081,-0.0294 -0.2457708,-0.0364 -0.3496177,-0.0225 -0.1765399,0.0225 -0.3150022,0.10549 -0.4205798,0.22847 -0.1194243,0.13847 -0.2025014,0.32712 -0.25096308,0.53653 -0.051923,0.23021 -0.062309,0.48289 -0.031153,0.72348 0.027691,0.21461 0.081347,0.43096 0.15230858,0.64038 0.074423,0.22154 0.1661543,0.4327 0.2630786,0.63001 0.088269,0.17998 0.1886551,0.35308 0.3011559,0.52269 0.1142315,0.17128 0.2353861,0.33232 0.361733,0.48463 0.4344262,0.52097 0.8913522,0.87751 1.3482784,1.08 0.4171181,0.1852 0.8325055,0.24059 1.2305852,0.17654 0.4015411,-0.0658 0.7926974,-0.25268 1.1527,-0.55211 0.4603876,-0.38423 0.8723137,-0.95367 1.1994307,-1.69098 0.05539,-0.12289 0.08827,-0.25096 0.10731,-0.37731 0.0086,-0.0502 0.01385,-0.10549 0.01731,-0.15932 z m 3.3767534,-1.34826 c -0.121148,0.29596 -0.297694,0.56249 -0.5330804,0.80134 -0.249233,0.25444 -0.560774,0.47424 -0.938083,0.65943 -0.0034,0.10041 -0.0087,0.19558 -0.01722,0.28732 -0.01214,0.16095 -0.03288,0.32712 -0.06057,0.50019 -0.10904,0.68192 -0.340963,1.18386 -0.571159,1.68406 -0.150577,0.32538 -0.299424,0.64904 -0.405002,1.00558 -0.03808,0.12814 -0.05019,0.24403 -0.045,0.34787 0.01211,0.17654 0.08654,0.3202 0.202502,0.4327 0.131539,0.12814 0.316732,0.22326 0.520965,0.28386 0.226732,0.0658 0.479426,0.0917 0.720004,0.0761 0.212886,-0.0145 0.432696,-0.0555 0.649044,-0.11419 0.2232704,-0.0605 0.4396184,-0.13847 0.6438494,-0.225 0.188657,-0.0779 0.368657,-0.16784 0.540004,-0.26827 0.174816,-0.10041 0.342696,-0.21288 0.505388,-0.3323 0.548659,-0.40329 0.931161,-0.83771 1.161355,-1.27905 0.209424,-0.40327 0.28904,-0.8152 0.249232,-1.21674 -0.0398,-0.405 -0.204233,-0.80483 -0.482888,-1.18386 -0.356542,-0.48462 -0.900007,-0.92943 -1.614818,-1.29982 -0.119426,-0.0623 -0.244041,-0.10385 -0.370388,-0.12977 -0.04673,-0.0163 -0.100394,-0.0243 -0.154045,-0.0294 z"
       sodipodi:nodetypes="cccccccccccccccccccccccsccccccccccccccccccccccccccccccccccccccsccccccccccccccccccccscccccccccccccccccccscccccccccccccccccccscssssssssscccccccccccccccccccccccccccccccccccccccccc" />
  </g>
</svg>
