<?xml version="1.0" encoding="UTF-8" standalone="no"?>
<!-- Created with Inkscape (http://www.inkscape.org/) -->

<svg
   width="16"
   height="35"
   viewBox="0 0 4.2333334 9.2604167"
   version="1.1"
   id="svg1"
   inkscape:version="1.3 (0e150ed, 2023-07-21)"
   sodipodi:docname="rhsmall.svg"
   xml:space="preserve"
   xmlns:inkscape="http://www.inkscape.org/namespaces/inkscape"
   xmlns:sodipodi="http://sodipodi.sourceforge.net/DTD/sodipodi-0.dtd"
   xmlns="http://www.w3.org/2000/svg"
   xmlns:svg="http://www.w3.org/2000/svg"><sodipodi:namedview
     id="namedview1"
     pagecolor="#808080"
     bordercolor="#666666"
     borderopacity="1.0"
     inkscape:showpageshadow="2"
     inkscape:pageopacity="0.0"
     inkscape:pagecheckerboard="0"
     inkscape:deskcolor="#d1d1d1"
     inkscape:document-units="mm"
     inkscape:zoom="22.743514"
     inkscape:cx="12.531045"
     inkscape:cy="15.762736"
     inkscape:window-width="1664"
     inkscape:window-height="1248"
     inkscape:window-x="3016"
     inkscape:window-y="25"
     inkscape:window-maximized="0"
     inkscape:current-layer="layer1"
     showgrid="true"><inkscape:grid
       id="grid1"
       units="px"
       originx="0"
       originy="5"
       spacingx="0.26458333"
       spacingy="0.26458333"
       empcolor="#0099e5"
       empopacity="0.30196078"
       color="#0099e5"
       opacity="0.14901961"
       empspacing="5"
       dotted="false"
       gridanglex="30"
       gridanglez="30"
       visible="true" /></sodipodi:namedview><defs
     id="defs1" /><g
     inkscape:label="Layer 1"
     inkscape:groupmode="layer"
     id="layer1"
     transform="translate(0,-287.73957)"><path
       style="fill:#4080ff;fill-opacity:1;stroke:#4080ff;stroke-width:0.529168;stroke-linecap:round;stroke-linejoin:round;stroke-dasharray:none;stroke-opacity:1"
       d="m 2.1166665,291.97291 c 0,0 -1.81426258,2.38121 -1.81426258,3.29705 0,0.91587 0.91220988,1.4727 1.81426258,1.46537 0.9020526,-0.007 1.8135576,-0.54349 1.8142627,-1.46537 7.062e-4,-0.92185 -1.8142627,-3.29705 -1.8142627,-3.29705"
       id="path1"
       sodipodi:nodetypes="czzzc" /><path
       d="m 1.0587129,294.10031 q 0,0.29046 0.061611,0.43833 0.063372,0.14612 0.2006768,0.14612 0.2781308,0 0.2781308,-0.58445 0,-0.58092 -0.2781308,-0.58092 -0.1373052,0 -0.2006768,0.14611 -0.061611,0.14435 -0.061611,0.43481 z m 0.8044674,0 q 0,0.40137 -0.1390655,0.60732 -0.1373051,0.20421 -0.4031139,0.20421 -0.2499657,0 -0.38903123,-0.20948 -0.1373051,-0.21124 -0.1373051,-0.60205 0,-0.40312 0.1337844,-0.60381 0.13554493,-0.20067 0.39255193,-0.20067 0.2587674,0 0.3995932,0.20948 0.1425862,0.20772 0.1425862,0.595 z m 0.7710211,1.03158 q 0,0.29398 0.061611,0.43833 0.063372,0.14435 0.2006766,0.14435 0.1425863,0 0.2094785,-0.14259 0.068653,-0.14434 0.068653,-0.44009 0,-0.5774 -0.278131,-0.5774 -0.1373051,0 -0.2006767,0.14434 -0.061611,0.1426 -0.061611,0.43306 z m 0.8044674,0 q 0,0.3996 -0.1390655,0.60557 -0.1390654,0.2042 -0.4031138,0.2042 -0.2499658,0 -0.3890313,-0.20949 -0.1373051,-0.21123 -0.1373051,-0.60028 0,-0.40312 0.1337845,-0.60381 0.1337845,-0.20068 0.3925519,-0.20068 0.2587674,0 0.3995932,0.20948 0.1425861,0.20773 0.1425861,0.59501 z m -0.470006,-1.7991 -1.4276215,2.57366 H 1.2646707 l 1.4276213,-2.57366 z"
       id="text1"
       style="font-size:5.40785px;line-height:1.25;-inkscape-font-specification:'sans-serif, Normal';fill:#ffffff;stroke-width:0.351505"
       aria-label="%" /><text
       xml:space="preserve"
       style="font-style:normal;font-weight:normal;font-size:3.48191px;line-height:1.25;font-family:sans-serif;fill:#4080ff;fill-opacity:1;stroke:none;stroke-width:0.116064"
       x="-0.20277336"
       y="283.63107"
       id="text2"
       transform="scale(0.97590015,1.024695)"><tspan
         sodipodi:role="line"
         id="tspan1"
         style="fill:#4080ff;fill-opacity:1;stroke-width:0.116064"
         x="-0.20277336"
         y="283.63107">RH</tspan></text></g></svg>
